<svg width="42" height="41" viewBox="0 0 42 41" fill="none" xmlns="http://www.w3.org/2000/svg">
<path d="M4.3423 9.2878C0.725424 14.2927 -0.326162 22.0561 1.75349 27.9244C3.74654 33.5483 10.5354 38.1613 16.321 39.501C22.9911 41.0456 31.1624 40.6042 36.4172 35.4667C40.788 31.1936 41.4632 25.9695 41.4632 20.2505C41.4632 14.342 37.0503 9.21806 32.9947 5.34123C29.0316 1.55283 22.7963 1 17.5496 1C13.8943 1 10.993 1.21658 7.69898 2.77596C5.78546 3.6818 2.26813 6.03468 1.57798 8.10383" stroke="#001E9B" stroke-linecap="round"/>
<path d="M17.3477 39.5436C17.2861 36.3835 16.5726 33.3553 16.5726 30.241C16.5726 27.5184 16.4796 27.2138 13.6877 27.2138C12.3857 27.2138 12.3122 23.0026 12.9342 22.8608C13.5099 22.7295 15.2714 23.2019 15.7115 22.7503C16.0574 22.3952 15.7976 20.7474 15.7976 20.2534C15.7976 16.1359 15.3593 12.6851 19.07 10.5088C20.6141 9.60329 22.1061 9.31561 23.9357 9.31561C25.7242 9.31561 28.586 8.45275 28.586 10.7077C28.586 12.0302 29.5751 14.7833 27.811 14.8839C26.591 14.9535 24.0953 15.2472 23.462 16.4749C22.7741 17.8085 23.9115 20.4833 23.0745 21.5571C22.4154 22.4027 26.3261 21.6492 26.7345 22.4409C27.1995 23.3425 27.4589 26.5587 26.7345 27.3022C25.5506 28.5173 23.5482 26.5633 23.5482 29.2025C23.5482 32.6495 23.5482 36.0966 23.5482 39.5436" stroke="#001E9B" stroke-linecap="round"/>
</svg>
