<svg width="49" height="41" viewBox="0 0 49 41" fill="none" xmlns="http://www.w3.org/2000/svg">
<path d="M8.65637 13.1413C6.80981 19.8351 6.36885 25.9988 10.3965 31.9342C13.64 36.7143 19.2171 40.1928 25.1292 40.2866C37.5646 40.484 48.1038 34.1571 48.3303 20.5657C48.4869 11.1715 38.6844 3.85165 30.2334 1.8501C26.5366 0.974534 21.4576 0.708898 17.6661 1.65676C11.1792 3.27849 7.00695 6.4996 1 9.66115" stroke="#001E9B" stroke-linecap="round"/>
<path d="M16.2754 11.5989C15.4903 15.6227 15.2034 20.0055 15.2034 24.1063C15.2034 26.3375 14.8374 29.2813 15.9975 31.2534C16.6632 32.385 20.558 32.6828 21.8938 32.6828C24.8875 32.6828 27.8495 33.0402 30.8476 33.0402C34.1066 33.0402 36.2139 32.3063 37.5381 29.0696C38.9246 25.6803 39.7389 19.5191 38.6101 15.907C37.803 13.324 39.075 11.1765 35.5329 10.904C29.3714 10.43 22.7693 10.1694 16.6328 10.1694" stroke="#001E9B" stroke-linecap="round"/>
<path d="M21.9931 22.3195C21.9931 19.2684 24.7103 18.2303 27.3534 18.746C29.6026 18.746 31.8652 19.1958 31.9991 21.6048C32.186 24.969 31.5485 26.9651 27.7108 26.9651C24.8728 26.9651 21.9931 25.311 21.9931 22.3195Z" stroke="#001E9B" stroke-linecap="round"/>
<path d="M32.7137 17.5945C31.8016 17.1116 32.8597 15.3569 33.0711 14.8151C34.2985 14.8151 34.3855 15.6008 34.1233 16.7805C34.0013 17.3294 33.2721 17.8901 32.7137 17.5945Z" stroke="#001E9B" stroke-linecap="round"/>
</svg>
