<svg width="455" height="259" viewBox="0 0 455 259" fill="none" xmlns="http://www.w3.org/2000/svg">
<path d="M188.206 12.1697C156.099 12.1697 126.456 13.3756 97.2772 26.3317C80.853 33.6245 63.9612 39.5934 49.1386 49.4659C38.8677 56.3068 30.4561 67.7032 23.2864 77.0862C10.4427 93.895 1 120.143 1 140.507C1 161.327 4.20887 175.142 15.2633 193.549C23.2253 206.807 37.2762 213.603 50.8225 221.873C69.1129 233.04 89.7921 239.276 109.857 247.294C128.209 254.629 149.151 254.718 168.792 256.794C188.916 258.922 209.756 257.586 230.005 257.586C255.032 257.586 277.958 257.882 302.312 252.836C334.092 246.251 363.915 238.201 392.052 223.105C403.278 217.081 417.371 212.407 426.72 204.105C431.913 199.493 435.241 193.429 439.596 188.271C461.02 162.904 456.564 123.413 439.2 97.3177C421.238 70.3235 395.073 44.1544 362.931 30.29C339.545 20.2024 311.578 12.4149 286.266 7.41967C274.346 5.06726 262.333 1.21357 250.013 1.08635C231.199 0.892069 212.369 1.08635 193.554 1.08635" stroke="#E4613C" stroke-width="2" stroke-linecap="round"/>
</svg>
