<svg width="374" height="233" viewBox="0 0 374 233" fill="none" xmlns="http://www.w3.org/2000/svg">
<path d="M61.471 218.435V231.419H66.1112V233H59.6608V218.435H61.471Z" fill="#D0B4F6"/>
<path d="M77.5979 218.435V219.954H72.4584V224.719H77.0777V226.237H72.4584V231.481H77.5979V233H70.6481V218.435H77.5979Z" fill="#D0B4F6"/>
<path d="M83.3416 229.317L82.5301 233H80.6782L84.1948 218.435H86.5876L90.0417 233H88.1898L87.3992 229.317H83.3416ZM87.0662 227.756L85.36 219.808L83.6746 227.756H87.0662Z" fill="#D0B4F6"/>
<path d="M94.2457 226.966V233H92.4354V218.435H96.3473C97.5264 218.435 98.4142 218.698 99.0107 219.225C99.6211 219.739 99.9262 220.557 99.9262 221.681V223.678C99.9262 225.246 99.302 226.224 98.0535 226.612L100.946 233H98.9691L96.2849 226.966H94.2457ZM98.116 221.493C98.116 220.966 97.9911 220.585 97.7414 220.349C97.5056 220.113 97.1241 219.995 96.597 219.995H94.2457V225.405H96.597C97.1241 225.405 97.5056 225.287 97.7414 225.051C97.9911 224.802 98.116 224.413 98.116 223.886V221.493Z" fill="#D0B4F6"/>
<path d="M105.545 233H103.86V218.435H106.814L110.102 231.46V218.435H111.787V233H108.812L105.545 219.974V233Z" fill="#D0B4F6"/>
<path d="M131.348 225.509V227.59H129.268V225.509H131.348Z" fill="#D0B4F6"/>
<path d="M151.867 233V220.016H148.558V218.435H156.985V220.016H153.677V233H151.867Z" fill="#D0B4F6"/>
<path d="M162.001 229.317L161.189 233H159.337L162.854 218.435H165.247L168.701 233H166.849L166.058 229.317H162.001ZM165.725 227.756L164.019 219.808L162.334 227.756H165.725Z" fill="#D0B4F6"/>
<path d="M173.841 218.435V231.419H178.481V233H172.031V218.435H173.841Z" fill="#D0B4F6"/>
<path d="M184.371 227.632V233H182.56V218.435H184.371V224.719L188.324 218.435H190.301L186.285 224.864L190.551 233H188.47L185.161 226.446L184.371 227.632Z" fill="#D0B4F6"/>
<path d="M210.007 225.509V227.59H207.927V225.509H210.007Z" fill="#D0B4F6"/>
<path d="M230.526 231.481V219.954H228.653V218.435H234.209V219.954H232.336V231.481H234.209V233H228.653V231.481H230.526Z" fill="#D0B4F6"/>
<path d="M240.389 233H238.704V218.435H241.659L244.946 231.46V218.435H246.632V233H243.656L240.389 219.974V233Z" fill="#D0B4F6"/>
<path d="M253 231.481V219.954H251.127V218.435H256.683V219.954H254.81V231.481H256.683V233H251.127V231.481H253Z" fill="#D0B4F6"/>
<path d="M264.237 233V220.016H260.928V218.435H269.355V220.016H266.047V233H264.237Z" fill="#D0B4F6"/>
<path d="M275.474 231.481V219.954H273.601V218.435H279.157V219.954H277.284V231.481H279.157V233H273.601V231.481H275.474Z" fill="#D0B4F6"/>
<path d="M285.608 229.317L284.796 233H282.944L286.461 218.435H288.854L292.308 233H290.456L289.665 229.317H285.608ZM289.332 227.756L287.626 219.808L285.941 227.756H289.332Z" fill="#D0B4F6"/>
<path d="M297.948 233V220.016H294.639V218.435H303.066V220.016H299.758V233H297.948Z" fill="#D0B4F6"/>
<path d="M313.575 218.435V219.954H308.436V224.719H313.055V226.237H308.436V231.481H313.575V233H306.625V218.435H313.575Z" fill="#D0B4F6"/>
<path d="M23.7881 32.3009V69.3107H7.59802V1.7983H23.7881V13.5926C26.0479 9.08503 28.9149 5.76363 32.4228 3.62845C35.9306 1.49327 39.877 0.442627 44.2955 0.442627C51.21 0.442627 56.6404 2.47613 60.553 6.54314C64.4656 10.6102 66.4219 16.609 66.4219 24.5736V69.3107H50.0969V29.0473C50.0969 24.1669 49.1863 20.5404 47.3311 18.2019C45.476 15.8634 42.4067 14.6772 38.0893 14.6772C35.4922 14.6772 33.0974 15.3211 30.9387 16.6429C28.78 17.9647 27.0598 19.8965 25.7444 22.4723C24.4289 25.048 23.7881 28.3355 23.7881 32.3009Z" fill="#D0B4F6"/>
<path d="M113.103 70.6664C103.827 70.6664 96.407 68.0906 90.8417 62.939C85.2763 57.7875 82.4768 50.2296 82.4768 40.2993V30.8096C82.4768 20.9471 85.2763 13.4232 90.8417 8.23773C96.407 3.05229 103.827 0.442627 113.103 0.442627C122.446 0.442627 129.934 3.05229 135.499 8.23773C141.065 13.4232 143.864 20.9471 143.864 30.8096V40.2993C143.864 50.2296 141.065 57.7875 135.499 62.939C129.934 68.0906 122.446 70.6664 113.103 70.6664ZM113.103 14.6772C108.347 14.6772 104.839 16.2023 102.579 19.2187C100.32 22.235 99.2065 26.302 99.2065 31.3519V39.7571C99.2065 44.8069 100.32 48.874 102.579 51.8903C104.839 54.9067 108.347 56.4318 113.103 56.4318C117.96 56.4318 121.535 54.9067 123.829 51.8903C126.123 48.874 127.269 44.8069 127.269 39.7571V31.3519C127.269 26.302 126.123 22.235 123.829 19.2187C121.535 16.2023 117.96 14.6772 113.103 14.6772Z" fill="#D0B4F6"/>
<path d="M217.529 69.3107L202.958 22.1334L187.847 69.3107H169.903L151.69 1.79834H169.634L180.427 51.1447L195.942 1.79834H210.918L226.029 51.2803L237.497 1.79834H254.631L236.283 69.3107H217.529Z" fill="#D0B4F6"/>
<path d="M66.287 193.355L51.7159 146.177L36.6052 193.355H18.6612L0.447388 125.842H18.3914L29.1848 175.189L44.7002 125.842H59.6761L74.7868 175.324L86.2548 125.842H103.389L85.0405 193.355H66.287Z" fill="#D0B4F6"/>
<path d="M132.801 156.345V193.354H116.611V94.3906H132.801V137.636C135.061 133.129 137.928 129.807 141.436 127.672C144.944 125.537 148.89 124.486 153.309 124.486C160.223 124.486 165.654 126.52 169.566 130.587C173.479 134.654 175.435 140.653 175.435 148.617V193.354H159.11V153.091C159.11 148.211 158.199 144.584 156.344 142.246C154.489 139.907 151.42 138.721 147.102 138.721C144.505 138.721 142.11 139.365 139.952 140.687C137.793 142.008 136.073 143.94 134.757 146.516C133.442 149.092 132.801 152.379 132.801 156.345Z" fill="#D0B4F6"/>
<path d="M231.291 193.354V185.085C229.672 188.339 227.344 190.745 224.342 192.338C221.341 193.931 217.293 194.71 212.267 194.71C205.623 194.71 200.361 193.049 196.55 189.762C192.738 186.474 190.816 181.865 190.816 176.002V172.342C190.816 167.292 192.738 163.089 196.617 159.734C200.496 156.379 206.972 154.718 216.045 154.718H231.291V151.329C231.291 146.991 230.447 143.805 228.795 141.771C227.142 139.738 224.241 138.721 220.093 138.721C216.416 138.721 213.718 139.5 211.998 141.026C210.277 142.551 209.265 144.55 208.894 146.991H192.839C193.75 140.314 196.448 134.891 200.934 130.723C205.42 126.554 212.166 124.486 221.172 124.486C229.638 124.486 236.148 126.554 240.735 130.655C245.322 134.756 247.616 141.127 247.616 149.702V193.354H231.291ZM217.934 183.051C222.251 183.051 225.557 181.899 227.85 179.594C230.144 177.29 231.291 173.426 231.291 168.003V164.208H218.204C214.156 164.208 211.289 164.919 209.637 166.377C207.984 167.834 207.141 169.8 207.141 172.342V174.511C207.141 177.324 207.984 179.425 209.704 180.882C211.424 182.34 214.156 183.051 217.934 183.051Z" fill="#D0B4F6"/>
<path d="M304.686 180.34V194.032H292.813C284.549 194.032 278.512 192.134 274.734 188.339C270.956 184.543 269.068 178.34 269.068 169.766V139.67H259.084V125.842H269.068V106.32H285.393V125.842H304.686V139.67H285.393V169.766C285.393 172.918 286.168 175.494 287.686 177.425C289.204 179.357 292.037 180.34 296.186 180.34H304.686Z" fill="#D0B4F6"/>
<path d="M363.645 141.839C361.047 144.11 358.551 146.076 356.224 147.804C353.897 149.533 352.008 151.43 350.558 153.566C349.107 155.701 348.399 158.344 348.399 161.496V166.512H332.209V162.174C332.209 158.107 332.546 154.752 333.221 152.074C333.895 149.397 335.11 146.957 336.863 144.754C338.617 142.551 341.113 140.246 344.351 137.908C346.881 136.01 349.107 134.349 351.03 132.892C352.952 131.434 354.47 129.875 355.549 128.215C356.629 126.554 357.168 124.588 357.168 122.317C357.168 118.793 356.055 116.081 353.796 114.183C351.536 112.285 348.264 111.337 343.947 111.337C339.09 111.337 335.413 112.624 332.951 115.2C330.489 117.776 329.241 121.097 329.241 125.164V127.469H313.59V124.487C313.59 119.064 314.906 114.285 317.57 110.184C320.235 106.083 323.878 102.864 328.566 100.559C333.254 98.2543 338.516 97.102 344.351 97.102C349.849 97.102 354.807 98.051 359.26 99.9489C363.712 101.847 367.254 104.66 369.851 108.354C372.448 112.048 373.763 116.522 373.763 121.775C373.763 124.588 373.325 127.198 372.414 129.638C371.503 132.078 370.289 134.315 368.771 136.349C367.254 138.382 365.533 140.212 363.645 141.839ZM340.304 194.71C337.336 194.71 334.873 193.761 332.951 191.863C331.028 189.965 330.05 187.559 330.05 184.678C330.05 181.594 331.028 179.154 332.951 177.358C334.873 175.561 337.336 174.646 340.304 174.646C343.373 174.646 345.869 175.561 347.792 177.358C349.714 179.154 350.692 181.594 350.692 184.678C350.692 187.559 349.714 189.965 347.792 191.863C345.869 193.761 343.373 194.71 340.304 194.71Z" fill="#D0B4F6"/>
</svg>
