<svg width="35" height="33" viewBox="0 0 35 33" fill="none" xmlns="http://www.w3.org/2000/svg">
<path d="M18.74 1C10.478 1 2.73704 2.80166 1.31282 12.4178C0.804752 15.8482 0.751711 20.0786 2.42232 23.0909C4.7198 27.2335 9.62948 29.6918 13.8691 31.1716C22.556 34.2035 32.4405 28.616 33.7318 19.2574C34.8822 10.9197 32.4813 4.38614 23.611 3.48212" stroke="#E4613C" stroke-linecap="round"/>
<path d="M12 10C12.5713 11.3249 13.6857 12.4923 14.5556 13.6303C15.532 14.9077 16.5503 16.222 17.6667 17.3782C18.729 18.4783 19.7843 19.5168 20.7778 20.6891C21.1492 21.1274 21.7449 21.4856 22 22" stroke="#E4613C" stroke-linecap="round"/>
<path d="M12 22C12.8649 20.9132 13.9498 20.0479 15.0184 19.1379C16.4608 17.9096 17.7059 16.4656 19.2164 15.3036C20.2525 14.5065 21.3349 13.6179 22.2242 12.6746C22.4665 12.4175 22.6988 12.1875 23 12" stroke="#E4613C" stroke-linecap="round"/>
</svg>
