<svg width="35" height="33" viewBox="0 0 35 33" fill="none" xmlns="http://www.w3.org/2000/svg">
<path d="M18.74 1C10.478 1 2.73704 2.80166 1.31282 12.4178C0.804752 15.8482 0.751711 20.0786 2.42232 23.0909C4.7198 27.2335 9.62948 29.6918 13.8691 31.1716C22.556 34.2035 32.4405 28.616 33.7318 19.2574C34.8822 10.9197 32.4813 4.38614 23.611 3.48212" stroke="#E4613C" stroke-linecap="round"/>
<path d="M11 11C14.2033 11 17.4067 11 20.61 11C21.4946 11 22.4169 11 23.2925 11C23.5333 11 23.7561 11 24 11" stroke="#E4613C" stroke-linecap="round"/>
<path d="M11 16C14.2159 16 17.7138 16 20.9834 16C22.3523 16 23.6375 16 25 16" stroke="#E4613C" stroke-linecap="round"/>
<path d="M11 22C15.343 22 19.7196 22 24 22" stroke="#E4613C" stroke-linecap="round"/>
</svg>
