<svg width="139" height="58" viewBox="0 0 139 58" fill="none" xmlns="http://www.w3.org/2000/svg">
<path d="M81.0276 1.07031C72.7498 1.37299 64.4712 1.65623 56.1942 1.97834C43.7912 2.46102 32.1009 3.71226 20.5376 8.47987C13.5812 11.3481 3.51473 15.7809 1.4981 23.942C0.64603 27.3903 0.716386 31.9243 1.91185 35.2576C4.46227 42.369 13.8941 45.445 20.3452 47.569C31.0548 51.0952 42.3732 53.3623 53.533 54.8626C67.0748 56.6831 81.3819 57.5626 95.0447 56.708C110.851 55.7193 129.454 50.3416 136.532 34.7237C139.001 29.2749 139.317 22.4857 135.683 17.4169C129.882 9.32575 119.135 7.18642 110.333 4.20732" stroke="#E4613C" stroke-linecap="round"/>
</svg>
