<svg width="112" height="57" viewBox="0 0 112 57" fill="none" xmlns="http://www.w3.org/2000/svg">
<path d="M46.4583 3.3904C38.662 3.3904 31.4639 3.64847 24.3786 6.42118C20.3904 7.9819 16.2886 9.25929 12.6893 11.3721C10.1953 12.8361 8.15269 15.275 6.41171 17.283C3.29293 20.8803 1 26.4976 1 30.8557C1 35.3112 1.7792 38.2678 4.46349 42.207C6.39688 45.0442 9.8088 46.4986 13.0982 48.2686C17.5396 50.6584 22.561 51.9929 27.4332 53.7089C31.8897 55.2785 36.9748 55.2976 41.7441 55.742C46.6307 56.1973 51.6913 55.9114 56.6083 55.9114C62.6854 55.9114 68.2526 55.9748 74.1663 54.8949C81.8834 53.4856 89.125 51.7629 95.9574 48.5321C98.6835 47.243 102.106 46.2426 104.376 44.466C105.637 43.479 106.445 42.1812 107.502 41.0775C112.705 35.6487 111.623 27.1974 107.406 21.6127C103.045 15.8358 96.6911 10.2354 88.8861 7.26829C83.2073 5.10947 76.4162 3.44287 70.2699 2.37386C67.3753 1.87042 64.4584 1.0457 61.4668 1.01848C56.8983 0.976902 52.3259 1.01848 47.7572 1.01848" stroke="#D0B4F6" stroke-linecap="round"/>
</svg>
